HIERARCHY
ROOT newVegas:Hips
{
	OFFSET 0.000000 96.479958 0.000000
	CHANNELS 6 Xposition Yposition Zposition Xrotation Yrotation Zrotation
	JOINT newVegas:Pelvis
	{
		OFFSET 0.000000 0.000000 0.000000
		CHANNELS 3 Xrotation Yrotation Zrotation
		JOINT newVegas:LeftUpLeg
		{
			OFFSET 18.735201 -5.666702 -4.541200
			CHANNELS 3 Xrotation Yrotation Zrotation
			JOINT newVegas:LeftLeg
			{
				OFFSET -0.021200 -31.938179 0.493100
				CHANNELS 3 Xrotation Yrotation Zrotation
				JOINT newVegas:LeftFoot
				{
					OFFSET 0.021200 -31.938179 -4.336299
					CHANNELS 3 Xrotation Yrotation Zrotation
					JOINT newVegas:LeftToeBase
					{
						OFFSET 0.943001 -26.722000 15.023500
						CHANNELS 3 Xrotation Yrotation Zrotation
						End Site
						{
							OFFSET 0.000000 30.670183 0.000000
						}
					}
				}
				JOINT newVegas:Left_PantLeg
				{
					OFFSET 0.663870 -9.044666 -1.108900
					CHANNELS 3 Xrotation Yrotation Zrotation
					End Site
					{
						OFFSET 1.415995 20.635357 0.000000
					}
				}
			}
		}
		JOINT newVegas:RightUpLeg
		{
			OFFSET -18.735201 -5.666702 -4.541200
			CHANNELS 3 Xrotation Yrotation Zrotation
			JOINT newVegas:RightLeg
			{
				OFFSET 0.018946 -31.938133 0.493100
				CHANNELS 3 Xrotation Yrotation Zrotation
				JOINT newVegas:RightFoot
				{
					OFFSET -0.018946 -31.938126 -4.336299
					CHANNELS 3 Xrotation Yrotation Zrotation
					JOINT newVegas:RightToeBase
					{
						OFFSET -0.943001 -26.722004 15.023500
						CHANNELS 3 Xrotation Yrotation Zrotation
						End Site
						{
							OFFSET 0.000000 30.670187 0.000000
						}
					}
				}
				JOINT newVegas:Right_PantLeg
				{
					OFFSET -0.661674 -9.044716 -1.108900
					CHANNELS 3 Xrotation Yrotation Zrotation
					End Site
					{
						OFFSET -1.415958 20.635269 0.000000
					}
				}
			}
		}
	}
	JOINT newVegas:Spine
	{
		OFFSET 0.000000 10.199997 -0.299500
		CHANNELS 3 Xrotation Yrotation Zrotation
		JOINT newVegas:Spine1
		{
			OFFSET 0.000000 11.900002 -1.516600
			CHANNELS 3 Xrotation Yrotation Zrotation
			JOINT newVegas:Spine2
			{
				OFFSET 0.000000 13.600006 -2.842500
				CHANNELS 3 Xrotation Yrotation Zrotation
				JOINT newVegas:Neck
				{
					OFFSET 0.000000 9.624100 -2.890100
					CHANNELS 3 Xrotation Yrotation Zrotation
					JOINT newVegas:Head
					{
						OFFSET 0.000000 14.068802 -1.351900
						CHANNELS 3 Xrotation Yrotation Zrotation
						JOINT newVegas:Hair_Back
						{
							OFFSET 0.000000 3.231903 -17.524799
							CHANNELS 3 Xrotation Yrotation Zrotation
							End Site
							{
								OFFSET 0.000000 19.849884 0.000000
							}
						}
						JOINT newVegas:Hair_Front
						{
							OFFSET 0.000000 31.260406 4.573800
							CHANNELS 3 Xrotation Yrotation Zrotation
							JOINT newVegas:Hair_Front1
							{
								OFFSET 0.000000 2.284103 11.993300
								CHANNELS 3 Xrotation Yrotation Zrotation
								JOINT newVegas:Hair_Front2
								{
									OFFSET 0.000000 2.284103 11.993300
									CHANNELS 3 Xrotation Yrotation Zrotation
									End Site
									{
										OFFSET 0.000000 12.208862 0.000000
									}
								}
							}
						}
						JOINT newVegas:Jowel
						{
							OFFSET 0.000000 -7.458206 6.864100
							CHANNELS 3 Xrotation Yrotation Zrotation
							End Site
							{
								OFFSET 0.000000 19.849884 0.000000
							}
						}
					}
				}
				JOINT newVegas:LeftShoulder
				{
					OFFSET 15.263000 10.923401 -0.547700
					CHANNELS 3 Xrotation Yrotation Zrotation
					JOINT newVegas:LeftArm
					{
						OFFSET 25.438599 -2.830597 -13.032500
						CHANNELS 3 Xrotation Yrotation Zrotation
						JOINT newVegas:LeftForeArm
						{
							OFFSET 29.960503 0.000000 0.000000
							CHANNELS 3 Xrotation Yrotation Zrotation
							JOINT newVegas:LeftHand
							{
								OFFSET 27.849251 0.000000 0.000000
								CHANNELS 3 Xrotation Yrotation Zrotation
								JOINT newVegas:LeftHandThumb1
								{
									OFFSET 4.487587 -3.305161 6.305391
									CHANNELS 3 Xrotation Yrotation Zrotation
									JOINT newVegas:LeftHandThumb2
									{
										OFFSET 5.480453 -3.164139 3.164143
										CHANNELS 3 Xrotation Yrotation Zrotation
										JOINT newVegas:LeftHandThumb3
										{
											OFFSET 5.159721 -2.978973 2.978967
											CHANNELS 3 Xrotation Yrotation Zrotation
											End Site
											{
												OFFSET 2.494507 5.926697 1.738678
											}
										}
									}
								}
								JOINT newVegas:LeftHandIndex1
								{
									OFFSET 18.578728 -0.527832 5.208049
									CHANNELS 3 Xrotation Yrotation Zrotation
									JOINT newVegas:LeftHandIndex2
									{
										OFFSET 3.192009 0.000000 0.000000
										CHANNELS 3 Xrotation Yrotation Zrotation
										JOINT newVegas:LeftHandIndex3
										{
											OFFSET 3.835129 0.000000 0.000000
											CHANNELS 3 Xrotation Yrotation Zrotation
											End Site
											{
												OFFSET -0.034599 3.816971 0.371180
											}
										}
									}
								}
								JOINT newVegas:LeftHandMiddle1
								{
									OFFSET 18.476105 0.000000 0.000000
									CHANNELS 3 Xrotation Yrotation Zrotation
									JOINT newVegas:LeftHandMiddle2
									{
										OFFSET 3.324875 0.000000 0.000000
										CHANNELS 3 Xrotation Yrotation Zrotation
										JOINT newVegas:LeftHandMiddle3
										{
											OFFSET 4.596550 0.000000 0.000000
											CHANNELS 3 Xrotation Yrotation Zrotation
											End Site
											{
												OFFSET 0.057701 4.578827 0.399218
											}
										}
									}
								}
								JOINT newVegas:LeftHandRing1
								{
									OFFSET 17.732719 0.121887 -4.201567
									CHANNELS 3 Xrotation Yrotation Zrotation
									JOINT newVegas:LeftHandRing2
									{
										OFFSET 2.733170 0.000000 0.000000
										CHANNELS 3 Xrotation Yrotation Zrotation
										JOINT newVegas:LeftHandRing3
										{
											OFFSET 3.178268 0.000000 0.000000
											CHANNELS 3 Xrotation Yrotation Zrotation
											End Site
											{
												OFFSET 0.119102 3.170624 0.185394
											}
										}
									}
								}
								JOINT newVegas:LeftHandPinky1
								{
									OFFSET 15.989624 -0.606689 -7.535461
									CHANNELS 3 Xrotation Yrotation Zrotation
									JOINT newVegas:LeftHandPinky2
									{
										OFFSET 2.538986 0.000000 0.000000
										CHANNELS 3 Xrotation Yrotation Zrotation
										JOINT newVegas:LeftHandPinky3
										{
											OFFSET 2.593102 0.000000 0.000000
											CHANNELS 3 Xrotation Yrotation Zrotation
											End Site
											{
												OFFSET -0.150902 2.584198 0.152708
											}
										}
									}
								}
							}
							JOINT newVegas:Left_Sleeve
							{
								OFFSET 0.267448 -0.649796 0.577675
								CHANNELS 3 Xrotation Yrotation Zrotation
								End Site
								{
									OFFSET 0.000000 15.991241 0.000000
								}
							}
							JOINT newVegas:Left_CapeC
							{
								OFFSET 15.715958 -8.608795 -6.935905
								CHANNELS 3 Xrotation Yrotation Zrotation
								JOINT newVegas:Left_CapeC1
								{
									OFFSET 0.000000 -8.688499 0.000000
									CHANNELS 3 Xrotation Yrotation Zrotation
									End Site
									{
										OFFSET 0.000000 8.688499 0.000000
									}
								}
							}
						}
						JOINT newVegas:Left_CapeB
						{
							OFFSET 26.118385 -8.608795 -7.079235
							CHANNELS 3 Xrotation Yrotation Zrotation
							JOINT newVegas:Left_CapeB1
							{
								OFFSET 0.000000 -8.688499 0.000000
								CHANNELS 3 Xrotation Yrotation Zrotation
								End Site
								{
									OFFSET 0.000000 8.688499 0.000000
								}
							}
						}
						JOINT newVegas:Left_CapeA
						{
							OFFSET 5.115639 -8.608795 -10.395809
							CHANNELS 3 Xrotation Yrotation Zrotation
							JOINT newVegas:Left_CapeA1
							{
								OFFSET 0.000000 -8.688499 0.000000
								CHANNELS 3 Xrotation Yrotation Zrotation
								End Site
								{
									OFFSET 0.000000 8.688499 0.000000
								}
							}
						}
					}
				}
				JOINT newVegas:RightShoulder
				{
					OFFSET -15.263000 10.923401 -0.547700
					CHANNELS 3 Xrotation Yrotation Zrotation
					JOINT newVegas:RightArm
					{
						OFFSET -25.438599 -2.830597 -13.032500
						CHANNELS 3 Xrotation Yrotation Zrotation
						JOINT newVegas:RightForeArm
						{
							OFFSET -29.960503 0.000000 0.000000
							CHANNELS 3 Xrotation Yrotation Zrotation
							JOINT newVegas:RightHand
							{
								OFFSET -27.849251 0.000000 0.000000
								CHANNELS 3 Xrotation Yrotation Zrotation
								JOINT newVegas:RightHandThumb1
								{
									OFFSET -4.487587 -3.305161 6.305391
									CHANNELS 3 Xrotation Yrotation Zrotation
									JOINT newVegas:RightHandThumb2
									{
										OFFSET -5.480453 -3.164139 3.164143
										CHANNELS 3 Xrotation Yrotation Zrotation
										JOINT newVegas:RightHandThumb3
										{
											OFFSET -5.159721 -2.978973 2.978967
											CHANNELS 3 Xrotation Yrotation Zrotation
											End Site
											{
												OFFSET -2.494507 5.926697 1.738678
											}
										}
									}
								}
								JOINT newVegas:RightHandIndex1
								{
									OFFSET -18.578728 -0.527832 5.208049
									CHANNELS 3 Xrotation Yrotation Zrotation
									JOINT newVegas:RightHandIndex2
									{
										OFFSET -3.192009 0.000000 0.000000
										CHANNELS 3 Xrotation Yrotation Zrotation
										JOINT newVegas:RightHandIndex3
										{
											OFFSET -3.835129 0.000000 0.000000
											CHANNELS 3 Xrotation Yrotation Zrotation
											End Site
											{
												OFFSET 0.034599 3.816971 0.371180
											}
										}
									}
								}
								JOINT newVegas:RightHandMiddle1
								{
									OFFSET -18.476105 0.000000 0.000000
									CHANNELS 3 Xrotation Yrotation Zrotation
									JOINT newVegas:RightHandMiddle2
									{
										OFFSET -3.324875 0.000000 0.000000
										CHANNELS 3 Xrotation Yrotation Zrotation
										JOINT newVegas:RightHandMiddle3
										{
											OFFSET -4.596550 0.000000 0.000000
											CHANNELS 3 Xrotation Yrotation Zrotation
											End Site
											{
												OFFSET -0.057701 4.578827 0.399218
											}
										}
									}
								}
								JOINT newVegas:RightHandRing1
								{
									OFFSET -17.732719 0.121887 -4.201567
									CHANNELS 3 Xrotation Yrotation Zrotation
									JOINT newVegas:RightHandRing2
									{
										OFFSET -2.733170 0.000000 0.000000
										CHANNELS 3 Xrotation Yrotation Zrotation
										JOINT newVegas:RightHandRing3
										{
											OFFSET -3.178268 0.000000 0.000000
											CHANNELS 3 Xrotation Yrotation Zrotation
											End Site
											{
												OFFSET -0.119102 3.170624 0.185394
											}
										}
									}
								}
								JOINT newVegas:RightHandPinky1
								{
									OFFSET -15.989624 -0.606689 -7.535461
									CHANNELS 3 Xrotation Yrotation Zrotation
									JOINT newVegas:RightHandPinky2
									{
										OFFSET -2.538986 0.000000 0.000000
										CHANNELS 3 Xrotation Yrotation Zrotation
										JOINT newVegas:RightHandPinky3
										{
											OFFSET -2.593102 0.000000 0.000000
											CHANNELS 3 Xrotation Yrotation Zrotation
											End Site
											{
												OFFSET 0.150902 2.584198 0.152708
											}
										}
									}
								}
							}
							JOINT newVegas:Right_CapeC
							{
								OFFSET -15.715958 -8.608795 -6.935905
								CHANNELS 3 Xrotation Yrotation Zrotation
								JOINT newVegas:Right_CapeC1
								{
									OFFSET 0.000000 -8.688499 0.000000
									CHANNELS 3 Xrotation Yrotation Zrotation
									End Site
									{
										OFFSET 0.000000 8.688499 0.000000
									}
								}
							}
							JOINT newVegas:Right_Sleeve
							{
								OFFSET -0.267448 -0.649994 0.577675
								CHANNELS 3 Xrotation Yrotation Zrotation
								End Site
								{
									OFFSET 0.000000 15.991302 0.000000
								}
							}
						}
						JOINT newVegas:Right_CapeA
						{
							OFFSET -5.115540 -8.608795 -10.395824
							CHANNELS 3 Xrotation Yrotation Zrotation
							JOINT newVegas:Right_CapeA1
							{
								OFFSET 0.000000 -8.688499 0.000000
								CHANNELS 3 Xrotation Yrotation Zrotation
								End Site
								{
									OFFSET 0.000000 8.688499 0.000000
								}
							}
						}
						JOINT newVegas:Right_CapeB
						{
							OFFSET -26.118187 -8.608795 -7.079266
							CHANNELS 3 Xrotation Yrotation Zrotation
							JOINT newVegas:Right_CapeB1
							{
								OFFSET 0.000000 -8.688499 0.000000
								CHANNELS 3 Xrotation Yrotation Zrotation
								End Site
								{
									OFFSET 0.000000 8.688499 0.000000
								}
							}
						}
					}
				}
				JOINT newVegas:Left_Collar
				{
					OFFSET 18.625099 8.655502 8.828100
					CHANNELS 3 Xrotation Yrotation Zrotation
					JOINT newVegas:Left_Collar1
					{
						OFFSET 14.783401 10.540405 -1.259500
						CHANNELS 3 Xrotation Yrotation Zrotation
						End Site
						{
							OFFSET 0.000000 18.199875 0.000000
						}
					}
				}
				JOINT newVegas:Collar_Back
				{
					OFFSET 0.000000 15.630707 -20.132601
					CHANNELS 3 Xrotation Yrotation Zrotation
					End Site
					{
						OFFSET 0.000000 22.523010 0.000000
					}
				}
				JOINT newVegas:Left_Peck
				{
					OFFSET 17.239599 -5.132599 25.482599
					CHANNELS 3 Xrotation Yrotation Zrotation
					End Site
					{
						OFFSET 0.000000 22.523010 0.000000
					}
				}
				JOINT newVegas:Right_Peck
				{
					OFFSET -17.239599 -5.132202 25.482599
					CHANNELS 3 Xrotation Yrotation Zrotation
					End Site
					{
						OFFSET 0.000000 22.523010 0.000000
					}
				}
				JOINT newVegas:Right_Collar
				{
					OFFSET -18.625099 8.655792 8.828100
					CHANNELS 3 Xrotation Yrotation Zrotation
					JOINT newVegas:Right_Collar1
					{
						OFFSET -14.783401 10.539993 -1.259500
						CHANNELS 3 Xrotation Yrotation Zrotation
						End Site
						{
							OFFSET 0.000000 18.199631 0.000000
						}
					}
				}
			}
		}
		JOINT newVegas:Belly
		{
			OFFSET 0.000000 -6.540398 9.014299
			CHANNELS 3 Xrotation Yrotation Zrotation
			End Site
			{
				OFFSET 0.000000 11.566666 0.000000
			}
		}
	}
	JOINT newVegas:ElvisFacialAnim_Joint
	{
		OFFSET 1.000000 -95.330101 -8.825800
		CHANNELS 3 Xrotation Yrotation Zrotation
		End Site
		{
			OFFSET 0.000000 35.315800 0.000000
		}
	}
}
MOTION
Frames: 4
Frame Time: 0.033333
2.080835 82.326942 -3.715759 42.797586 8.230158 4.781773 0.000001 -0.000000 -0.000000 -73.830636 -4.468556 6.734494 44.684026 1.070162 -1.297698 -2.454189 -4.968292 -15.627408 -0.000000 0.000000 0.000000 -0.000001 0.000000 0.000000 -83.286077 21.057094 -21.985831 48.195878 3.029845 2.044683 13.927469 -44.033246 28.269981 0.000000 0.000001 0.000000 0.000000 0.000000 -0.000001 6.120976 0.636205 0.597296 12.245697 -0.556421 0.352022 12.245672 -0.556423 0.352022 -0.763920 0.076776 -0.194388 -0.763918 0.076779 -0.194391 -0.000001 0.000001 -0.000000 -0.763878 0.076777 -0.194387 -0.763944 0.076783 -0.194392 0.000001 0.000000 0.000000 -0.000001 0.000001 0.000000 12.774154 -30.193562 -3.497806 -43.693806 -18.140988 -34.425502 12.774094 -83.914659 12.704212 -67.890994 -15.050383 -6.744561 19.050012 -20.381298 -10.821259 0.861543 4.878617 1.888912 0.000004 -0.000002 -0.000003 -4.341371 13.873375 -20.909000 7.643759 -3.576922 -45.811585 0.000000 -0.000002 -0.000000 -2.479444 13.209004 -41.091309 -0.473959 -1.376490 -32.211701 0.000002 0.000001 0.000001 2.322052 -0.806633 -42.231442 -8.724766 -2.996228 -36.967747 0.000002 0.000001 0.000000 -4.128236 -1.816593 -35.033365 -9.849634 -1.659199 -37.591865 0.000001 -0.000000 0.000003 -0.000000 -0.000000 -0.000001 -0.000000 -0.000000 -0.000001 -0.000001 0.000000 -0.000001 -0.000000 -0.000002 -0.000001 -0.000000 -0.000003 -0.000002 -0.000000 -0.000002 -0.000001 -0.000002 -0.000001 -0.000002 1.730999 4.984234 6.664984 -54.136940 3.410208 41.339536 5.950970 80.538544 -5.870364 46.499378 0.183125 -22.634443 15.587624 11.983383 12.030461 10.674794 -2.275797 -40.145953 0.000002 0.000001 -0.000000 -5.512076 -2.434782 -12.227651 -0.172454 -0.754180 8.522991 -0.000001 0.000000 0.000000 -0.119678 -8.388916 -11.832122 -0.169762 0.797325 15.669460 0.000001 -0.000001 0.000001 -1.658182 -14.792325 -9.731230 -0.010299 -0.571514 8.471233 0.000000 -0.000001 -0.000001 2.849356 -7.244391 6.046331 -0.084826 0.454667 5.620240 0.000001 0.000002 -0.000001 -0.000001 -0.000002 0.000001 -0.000002 -0.000002 0.000000 -0.000001 -0.000002 0.000001 0.000003 0.000000 -0.000003 0.000002 0.000001 -0.000004 0.000003 0.000000 -0.000003 0.000003 0.000001 -0.000002 -0.000000 -0.000000 -0.000000 -0.000000 -0.000000 -0.000000 -0.000000 -0.000000 -0.000000 -0.000000 -0.000000 -0.000000 -0.000000 -0.000000 -0.000000 -0.000000 -0.000000 -0.000000 -0.000000 -0.000000 -0.000000 0.000004 -0.000001 -0.000000 0.000001 -0.000000 -0.000000 
2.079739 82.377861 -3.707634 42.851647 8.232283 4.719302 0.000000 0.000000 -0.000000 -73.795508 -4.527346 6.739314 44.511352 1.067609 -1.293132 -2.367426 -4.938072 -15.627113 -0.000000 0.000000 0.000000 -0.000000 0.000000 -0.000002 -83.199381 20.961147 -21.978412 47.989083 3.019301 2.037007 13.990208 -44.071697 28.264069 -0.000000 -0.000003 0.000000 -0.000000 0.000001 -0.000002 6.100639 0.631509 0.579453 12.204872 -0.565198 0.317391 12.204858 -0.565201 0.317391 -0.767411 0.059169 -0.200360 -0.767399 0.059171 -0.200361 0.000000 0.000000 0.000000 -0.767365 0.059173 -0.200360 -0.767414 0.059162 -0.200359 0.000000 0.000000 0.000000 0.000000 0.000000 0.000000 12.642377 -30.164410 -4.190111 -43.673199 -18.710272 -33.918501 12.804755 -83.900821 12.734407 -68.630171 -14.644738 -7.343381 19.050019 -20.381300 -10.821265 0.861539 4.878618 1.888917 0.000002 0.000001 -0.000010 -4.341369 13.873379 -20.909002 7.643752 -3.576922 -45.811592 0.000001 0.000003 0.000002 -2.479440 13.209004 -41.091306 -0.473954 -1.376491 -32.211698 -0.000002 -0.000002 -0.000001 2.322056 -0.806633 -42.231442 -8.724764 -2.996233 -36.967747 0.000002 0.000001 -0.000000 -4.128230 -1.816593 -35.033362 -9.849631 -1.659203 -37.591869 0.000001 -0.000002 -0.000001 0.000001 0.000000 -0.000000 0.000001 0.000000 -0.000000 0.000000 0.000000 0.000000 -0.000001 0.000002 0.000001 -0.000001 0.000001 0.000001 -0.000001 0.000002 0.000001 -0.000002 0.000003 -0.000000 1.790094 4.410918 5.728020 -54.165692 3.016167 42.478108 5.793339 80.287692 -5.710634 46.589103 0.389967 -23.028726 15.587610 11.983389 12.030458 10.674798 -2.275797 -40.145967 0.000001 0.000001 -0.000000 -5.515208 -2.422016 -12.219412 -0.172449 -0.754194 8.522985 -0.000000 0.000001 0.000000 -0.119982 -8.390204 -11.824235 -0.169789 0.797418 15.671125 0.000000 -0.000000 0.000000 -1.656689 -14.795863 -9.740558 -0.010277 -0.571653 8.469863 -0.000001 0.000004 0.000001 2.853538 -7.261984 6.053362 -0.085643 0.462836 5.695299 0.000001 0.000003 -0.000001 -0.000001 0.000002 -0.000000 0.000001 0.000001 -0.000000 -0.000001 0.000002 -0.000001 0.000002 -0.000002 0.000001 0.000001 -0.000003 -0.000000 0.000002 -0.000002 0.000001 0.000001 -0.000003 0.000001 -0.000001 -0.000001 -0.000000 -0.000001 -0.000001 -0.000000 -0.000001 -0.000001 -0.000000 -0.000001 -0.000001 -0.000000 -0.000001 -0.000001 -0.000000 -0.000001 -0.000001 -0.000000 -0.000001 -0.000001 -0.000000 0.000000 0.000000 0.000000 0.000000 0.000000 -0.000000 
2.082198 82.426796 -3.667549 42.906647 8.230553 4.657194 0.000004 0.000001 0.000000 -73.736783 -4.615614 6.732065 44.362885 1.067594 -1.288978 -2.326312 -4.874539 -15.636721 -0.000001 0.000000 -0.000000 -0.000000 -0.000000 -0.000000 -83.117836 20.823835 -21.989727 47.816952 3.010129 2.030532 13.980283 -44.070385 28.219275 -0.000000 0.000001 0.000000 0.000000 0.000000 -0.000002 6.092876 0.619868 0.576253 12.189170 -0.584149 0.313147 12.189195 -0.584145 0.313149 -0.764868 0.074309 -0.197708 -0.764861 0.074309 -0.197708 -0.000003 0.000000 0.000000 -0.764905 0.074300 -0.197708 -0.764889 0.074316 -0.197709 0.000002 0.000001 0.000000 -0.000003 0.000000 0.000000 12.572952 -30.034855 -4.471365 -43.735119 -19.075788 -33.861721 12.381906 -83.675042 12.308570 -69.119363 -14.304160 -7.845142 19.050014 -20.381298 -10.821254 0.861544 4.878618 1.888921 -0.000000 -0.000002 -0.000003 -4.341373 13.873375 -20.909000 7.643752 -3.576920 -45.811592 -0.000003 0.000002 0.000001 -2.479445 13.208999 -41.091306 -0.473962 -1.376487 -32.211698 -0.000003 -0.000001 -0.000001 2.322052 -0.806634 -42.231442 -8.724766 -2.996229 -36.967750 0.000001 0.000001 0.000001 -4.128239 -1.816595 -35.033362 -9.849641 -1.659199 -37.591865 0.000001 -0.000005 -0.000000 0.000001 0.000001 -0.000000 0.000001 0.000001 -0.000000 0.000000 0.000001 0.000000 0.000002 0.000002 -0.000001 0.000002 0.000001 -0.000001 0.000002 0.000002 -0.000001 0.000001 0.000001 -0.000002 1.898383 4.056536 4.950084 -54.127364 2.682750 43.357628 5.567720 79.885653 -5.481500 46.554037 0.622104 -23.496071 15.587619 11.983377 12.030462 10.674801 -2.275750 -40.145950 0.000001 -0.000003 0.000001 -5.517649 -2.411891 -12.212441 -0.172451 -0.754192 8.522989 0.000001 0.000001 0.000000 -0.120323 -8.391672 -11.820527 -0.169869 0.797728 15.675588 -0.000000 0.000000 0.000001 -1.654645 -14.800106 -9.752544 -0.010220 -0.572016 8.466043 0.000000 0.000001 0.000000 2.857195 -7.277283 6.057369 -0.086306 0.469121 5.753283 0.000001 0.000003 -0.000001 -0.000001 -0.000001 0.000001 0.000001 0.000001 -0.000000 -0.000001 -0.000001 -0.000000 -0.000000 0.000002 0.000001 -0.000001 0.000002 -0.000000 -0.000000 0.000002 0.000001 -0.000000 0.000002 0.000001 -0.000001 -0.000000 0.000000 -0.000001 -0.000000 0.000000 -0.000001 -0.000000 0.000000 -0.000001 -0.000000 0.000000 -0.000001 -0.000000 0.000000 -0.000001 -0.000000 0.000000 -0.000001 -0.000000 0.000000 -0.000000 0.000000 -0.000000 0.000004 0.000001 0.000000 
2.083379 82.473450 -3.597183 42.913880 8.206398 4.632352 -0.000000 0.000000 -0.000000 -73.605417 -4.656093 6.740566 44.249101 1.063293 -1.286075 -2.343959 -4.818769 -15.642202 -0.000000 0.000000 -0.000000 -0.000000 -0.000000 0.000000 -83.044111 20.624337 -22.030630 47.699562 2.996693 2.025448 13.865356 -43.957964 28.080381 0.000000 0.000001 0.000000 0.000000 -0.000000 -0.000002 6.051104 0.622825 0.533846 12.105482 -0.575421 0.226596 12.105498 -0.575417 0.226597 -0.751405 0.287394 -0.137869 -0.751407 0.287394 -0.137869 0.000000 0.000000 0.000000 -0.751403 0.287384 -0.137865 -0.751328 0.287403 -0.137869 0.000002 -0.000000 0.000000 0.000000 0.000000 -0.000000 12.654705 -29.706812 -3.812261 -43.924349 -19.151173 -34.818518 11.138102 -82.962954 11.055982 -68.738047 -14.015873 -7.695822 19.050012 -20.381296 -10.821265 0.861543 4.878616 1.888919 0.000001 -0.000001 -0.000001 -4.341374 13.873379 -20.909000 7.643751 -3.576923 -45.811592 0.000001 -0.000001 0.000000 -2.479447 13.209000 -41.091309 -0.473959 -1.376487 -32.211698 0.000003 0.000002 0.000001 2.322050 -0.806637 -42.231435 -8.724769 -2.996233 -36.967750 0.000001 -0.000001 0.000000 -4.128236 -1.816596 -35.033365 -9.849639 -1.659201 -37.591862 -0.000001 -0.000005 0.000002 0.000001 0.000001 -0.000001 0.000001 0.000001 -0.000001 0.000000 0.000001 -0.000001 0.000002 0.000000 -0.000002 0.000002 -0.000001 -0.000002 0.000002 0.000000 -0.000002 0.000000 0.000001 -0.000003 1.983751 4.285807 4.778733 -53.790462 2.561675 43.301962 5.277000 79.218877 -5.184128 46.258563 0.839950 -24.031906 15.587617 11.983375 12.030459 10.674784 -2.275783 -40.145974 0.000001 -0.000002 -0.000003 -5.519450 -2.404229 -12.206650 -0.172450 -0.754165 8.522992 0.000001 0.000002 -0.000000 -0.120687 -8.393286 -11.820263 -0.169983 0.798120 15.682032 0.000001 -0.000000 0.000000 -1.652212 -14.804700 -9.766268 -0.010117 -0.572646 8.460220 0.000000 -0.000001 0.000000 2.860302 -7.290196 6.058826 -0.086821 0.473681 5.795731 0.000000 -0.000002 -0.000001 -0.000002 0.000002 -0.000000 -0.000002 -0.000002 0.000002 -0.000002 0.000002 -0.000001 -0.000000 0.000001 0.000001 -0.000001 0.000002 0.000002 -0.000000 0.000001 0.000001 -0.000000 0.000002 0.000002 -0.000000 0.000001 0.000000 -0.000000 0.000001 0.000000 -0.000000 0.000001 0.000000 -0.000000 0.000001 0.000000 -0.000000 0.000001 0.000000 -0.000000 0.000001 0.000000 -0.000000 0.000001 0.000000 -0.000001 -0.000000 0.000001 -0.000000 0.000000 -0.000000 
